<svg width="28" height="27" viewBox="0 0 28 27" fill="none" xmlns="http://www.w3.org/2000/svg">
<path d="M14.4885 22.62C14.185 22.4502 13.8151 22.4502 13.5116 22.62L6.48775 26.5517C5.74315 26.9685 4.8522 26.3212 5.01848 25.4843L6.58697 17.589C6.65474 17.2479 6.54041 16.896 6.28506 16.6599L0.374519 11.1945C-0.252013 10.6152 0.0882654 9.56779 0.935662 9.46729L8.92957 8.51921C9.27491 8.47826 9.57417 8.26083 9.71983 7.94506L13.092 0.635029C13.4494 -0.139791 14.5507 -0.139791 14.9081 0.635028L18.2803 7.94506C18.4259 8.26083 18.7252 8.47826 19.0705 8.51921L27.0644 9.46729C27.9118 9.56779 28.2521 10.6152 27.6256 11.1945L21.715 16.6599C21.4597 16.896 21.3454 17.2479 21.4131 17.589L22.9816 25.4843C23.1479 26.3212 22.2569 26.9685 21.5123 26.5517L14.4885 22.62ZM13.5117 19.564C13.8151 19.3941 14.185 19.3941 14.4884 19.564L19.6627 22.46L18.5065 16.645C18.4387 16.3039 18.553 15.952 18.8083 15.7159L23.1614 11.6893L17.2733 10.9912C16.9279 10.9503 16.6286 10.7328 16.4829 10.417L14 5.03329L11.5172 10.4181C11.3715 10.734 11.0721 10.9516 10.7266 10.9924L4.83872 11.6893L9.19179 15.7159C9.4471 15.952 9.56138 16.3039 9.49356 16.645L8.33738 22.46L13.5117 19.564Z" fill="#FFC700"/>
</svg>
